<mxfile host="app.diagrams.net" modified="2023-05-24T17:05:10.524Z" agent="Mozilla/5.0 (Windows NT 10.0; Win64; x64) AppleWebKit/537.36 (KHTML, like Gecko) Chrome/110.0.0.0 YaBrowser/23.3.4.603 Yowser/2.5 Safari/537.36" etag="8_Bcd7NCIoZrOdtLNkfU" version="21.3.2" type="github">
  <diagram name="Page-1" id="822b0af5-4adb-64df-f703-e8dfc1f81529">
    <mxGraphModel dx="2266" dy="1152" grid="1" gridSize="10" guides="1" tooltips="1" connect="1" arrows="1" fold="1" page="1" pageScale="1" pageWidth="1100" pageHeight="850" background="none" math="0" shadow="0">
      <root>
        <mxCell id="0" />
        <mxCell id="1" parent="0" />
        <mxCell id="7d933b09d9755ecc-6" value="Users" style="verticalLabelPosition=bottom;aspect=fixed;html=1;verticalAlign=top;strokeColor=none;shape=mxgraph.citrix.users;rounded=0;shadow=0;comic=0;fontFamily=Verdana;" parent="1" vertex="1">
          <mxGeometry x="310" y="90" width="64.5" height="55" as="geometry" />
        </mxCell>
        <mxCell id="7d933b09d9755ecc-34" value="" style="verticalLabelPosition=bottom;aspect=fixed;html=1;verticalAlign=top;strokeColor=none;shape=mxgraph.citrix.tower_server;rounded=0;shadow=0;comic=0;fontFamily=Verdana;" parent="1" vertex="1">
          <mxGeometry x="450" y="300" width="65" height="85" as="geometry" />
        </mxCell>
        <mxCell id="Go760dlcP-KFCdHBRFqZ-1" value="" style="verticalLabelPosition=bottom;aspect=fixed;html=1;verticalAlign=top;strokeColor=none;shape=mxgraph.citrix.tower_server;rounded=0;shadow=0;comic=0;fontFamily=Verdana;" vertex="1" parent="1">
          <mxGeometry x="230" y="520" width="65" height="85" as="geometry" />
        </mxCell>
        <mxCell id="Go760dlcP-KFCdHBRFqZ-3" value="" style="verticalLabelPosition=bottom;aspect=fixed;html=1;verticalAlign=top;strokeColor=none;shape=mxgraph.citrix.tower_server;rounded=0;shadow=0;comic=0;fontFamily=Verdana;" vertex="1" parent="1">
          <mxGeometry x="682.5" y="170" width="65" height="85" as="geometry" />
        </mxCell>
        <mxCell id="Go760dlcP-KFCdHBRFqZ-4" value="" style="verticalLabelPosition=bottom;sketch=0;aspect=fixed;html=1;verticalAlign=top;strokeColor=none;align=center;outlineConnect=0;shape=mxgraph.citrix.database;" vertex="1" parent="1">
          <mxGeometry x="870" y="365.73" width="62.5" height="73.53" as="geometry" />
        </mxCell>
        <mxCell id="Go760dlcP-KFCdHBRFqZ-5" value="" style="verticalLabelPosition=bottom;sketch=0;aspect=fixed;html=1;verticalAlign=top;strokeColor=none;align=center;outlineConnect=0;shape=mxgraph.citrix.database_server;" vertex="1" parent="1">
          <mxGeometry x="670" y="366" width="80" height="90" as="geometry" />
        </mxCell>
        <mxCell id="Go760dlcP-KFCdHBRFqZ-6" value="" style="verticalLabelPosition=bottom;sketch=0;aspect=fixed;html=1;verticalAlign=top;strokeColor=none;align=center;outlineConnect=0;shape=mxgraph.citrix.browser;" vertex="1" parent="1">
          <mxGeometry x="700" y="20" width="47.5" height="72.5" as="geometry" />
        </mxCell>
        <mxCell id="Go760dlcP-KFCdHBRFqZ-7" value="&lt;font style=&quot;font-size: 18px;&quot;&gt;Игровые сервера&lt;/font&gt;" style="text;html=1;strokeColor=none;fillColor=none;align=center;verticalAlign=middle;whiteSpace=wrap;rounded=0;" vertex="1" parent="1">
          <mxGeometry x="235" y="620" width="60" height="30" as="geometry" />
        </mxCell>
        <mxCell id="Go760dlcP-KFCdHBRFqZ-8" value="&lt;font style=&quot;font-size: 18px;&quot;&gt;База данных&lt;/font&gt;" style="text;html=1;strokeColor=none;fillColor=none;align=center;verticalAlign=middle;whiteSpace=wrap;rounded=0;" vertex="1" parent="1">
          <mxGeometry x="872.5" y="456" width="60" height="30" as="geometry" />
        </mxCell>
        <mxCell id="Go760dlcP-KFCdHBRFqZ-10" value="&lt;font style=&quot;font-size: 18px;&quot;&gt;Сервер базы данных&lt;/font&gt;" style="text;html=1;strokeColor=none;fillColor=none;align=center;verticalAlign=middle;whiteSpace=wrap;rounded=0;" vertex="1" parent="1">
          <mxGeometry x="680" y="470" width="60" height="30" as="geometry" />
        </mxCell>
        <mxCell id="Go760dlcP-KFCdHBRFqZ-11" value="&lt;font style=&quot;font-size: 18px;&quot;&gt;Веб сервер&lt;/font&gt;" style="text;html=1;strokeColor=none;fillColor=none;align=center;verticalAlign=middle;whiteSpace=wrap;rounded=0;" vertex="1" parent="1">
          <mxGeometry x="770" y="197.5" width="60" height="30" as="geometry" />
        </mxCell>
        <mxCell id="Go760dlcP-KFCdHBRFqZ-12" value="&lt;font style=&quot;font-size: 18px;&quot;&gt;Вебстраница&lt;/font&gt;" style="text;html=1;strokeColor=none;fillColor=none;align=center;verticalAlign=middle;whiteSpace=wrap;rounded=0;" vertex="1" parent="1">
          <mxGeometry x="780" y="50" width="60" height="30" as="geometry" />
        </mxCell>
        <mxCell id="Go760dlcP-KFCdHBRFqZ-15" value="" style="endArrow=classic;html=1;rounded=0;exitX=0.879;exitY=1.079;exitDx=0;exitDy=0;exitPerimeter=0;" edge="1" parent="1" source="7d933b09d9755ecc-6" target="7d933b09d9755ecc-34">
          <mxGeometry width="50" height="50" relative="1" as="geometry">
            <mxPoint x="350" y="150" as="sourcePoint" />
            <mxPoint x="1170" y="550" as="targetPoint" />
          </mxGeometry>
        </mxCell>
        <mxCell id="Go760dlcP-KFCdHBRFqZ-16" value="&lt;font style=&quot;font-size: 18px;&quot;&gt;Основной сервер&lt;/font&gt;" style="text;html=1;strokeColor=none;fillColor=none;align=center;verticalAlign=middle;whiteSpace=wrap;rounded=0;" vertex="1" parent="1">
          <mxGeometry x="450" y="409.26" width="60" height="30" as="geometry" />
        </mxCell>
        <mxCell id="Go760dlcP-KFCdHBRFqZ-17" value="" style="endArrow=classic;html=1;rounded=0;" edge="1" parent="1" source="7d933b09d9755ecc-34" target="Go760dlcP-KFCdHBRFqZ-5">
          <mxGeometry width="50" height="50" relative="1" as="geometry">
            <mxPoint x="600" y="310" as="sourcePoint" />
            <mxPoint x="650" y="260" as="targetPoint" />
          </mxGeometry>
        </mxCell>
        <mxCell id="Go760dlcP-KFCdHBRFqZ-18" value="" style="endArrow=classic;html=1;rounded=0;entryX=0.115;entryY=0.894;entryDx=0;entryDy=0;entryPerimeter=0;" edge="1" parent="1" source="7d933b09d9755ecc-34" target="Go760dlcP-KFCdHBRFqZ-3">
          <mxGeometry width="50" height="50" relative="1" as="geometry">
            <mxPoint x="610" y="320" as="sourcePoint" />
            <mxPoint x="660" y="270" as="targetPoint" />
          </mxGeometry>
        </mxCell>
        <mxCell id="Go760dlcP-KFCdHBRFqZ-19" value="" style="endArrow=classic;html=1;rounded=0;" edge="1" parent="1" source="Go760dlcP-KFCdHBRFqZ-3" target="Go760dlcP-KFCdHBRFqZ-6">
          <mxGeometry width="50" height="50" relative="1" as="geometry">
            <mxPoint x="620" y="330" as="sourcePoint" />
            <mxPoint x="670" y="280" as="targetPoint" />
          </mxGeometry>
        </mxCell>
        <mxCell id="Go760dlcP-KFCdHBRFqZ-20" value="" style="endArrow=classic;html=1;rounded=0;" edge="1" parent="1" source="Go760dlcP-KFCdHBRFqZ-5" target="Go760dlcP-KFCdHBRFqZ-4">
          <mxGeometry width="50" height="50" relative="1" as="geometry">
            <mxPoint x="630" y="340" as="sourcePoint" />
            <mxPoint x="680" y="290" as="targetPoint" />
          </mxGeometry>
        </mxCell>
        <mxCell id="Go760dlcP-KFCdHBRFqZ-21" value="" style="endArrow=classic;html=1;rounded=0;" edge="1" parent="1" source="7d933b09d9755ecc-34" target="Go760dlcP-KFCdHBRFqZ-1">
          <mxGeometry width="50" height="50" relative="1" as="geometry">
            <mxPoint x="640" y="350" as="sourcePoint" />
            <mxPoint x="690" y="300" as="targetPoint" />
          </mxGeometry>
        </mxCell>
        <mxCell id="Go760dlcP-KFCdHBRFqZ-22" value="" style="endArrow=none;dashed=1;html=1;rounded=0;" edge="1" parent="1" source="Go760dlcP-KFCdHBRFqZ-1">
          <mxGeometry width="50" height="50" relative="1" as="geometry">
            <mxPoint x="250" y="330" as="sourcePoint" />
            <mxPoint x="320" y="150" as="targetPoint" />
          </mxGeometry>
        </mxCell>
      </root>
    </mxGraphModel>
  </diagram>
</mxfile>
